<?xml version="1.0" encoding="UTF-8" standalone="no"?>
<!-- Created with Inkscape (http://www.inkscape.org/) -->

<svg
   width="240mm"
   height="210mm"
   viewBox="0 0 240 210"
   version="1.1"
   id="svg1"
   xml:space="preserve"
   inkscape:version="1.3.2 (091e20e, 2023-11-25)"
   sodipodi:docname="database.svg"
   xmlns:inkscape="http://www.inkscape.org/namespaces/inkscape"
   xmlns:sodipodi="http://sodipodi.sourceforge.net/DTD/sodipodi-0.dtd"
   xmlns="http://www.w3.org/2000/svg"
   xmlns:svg="http://www.w3.org/2000/svg"><sodipodi:namedview
     id="namedview1"
     pagecolor="#ffffff"
     bordercolor="#000000"
     borderopacity="0.25"
     inkscape:showpageshadow="2"
     inkscape:pageopacity="0.0"
     inkscape:pagecheckerboard="0"
     inkscape:deskcolor="#d1d1d1"
     inkscape:document-units="mm"
     showguides="true"
     inkscape:zoom="0.85029999"
     inkscape:cx="411.03141"
     inkscape:cy="415.73563"
     inkscape:window-width="3520"
     inkscape:window-height="1282"
     inkscape:window-x="122"
     inkscape:window-y="173"
     inkscape:window-maximized="0"
     inkscape:current-layer="layer1" /><defs
     id="defs1" /><g
     inkscape:label="Layer 1"
     inkscape:groupmode="layer"
     id="layer1"
     transform="translate(-19.073957,-39.073957)"><path
       id="rect1"
       style="fill:none;stroke:#000000;stroke-width:7.9375;stroke-dasharray:none;stroke-opacity:1"
       d="M 93.704544,44.730459 A 69.603127,29.721525 0 0 0 24.10104,74.451643 V 214.21469 a 69.603127,29.721525 0 0 0 69.603504,29.7217 69.603127,29.721525 0 0 0 31.570686,-3.24373 H 252.25559 V 121.4865 H 163.30753 V 74.451643 A 69.603127,29.721525 0 0 0 93.704544,44.730459 Z" /><path
       id="path19"
       style="fill:none;stroke:#000000;stroke-width:7.9375;stroke-dasharray:none;stroke-opacity:1"
       d="m 163.30722,74.343453 c 0,16.34403 -31.16156,29.593477 -69.6013,29.593477 -38.439728,0 -69.601283,-13.249447 -69.601279,-29.593477 -0.396865,16.31762 31.161554,29.593477 69.601279,29.593477 38.43974,0 69.60131,-13.275857 69.6013,-29.593477 z"
       sodipodi:nodetypes="cscsc" /><path
       style="fill:none;stroke:#000000;stroke-width:5.29167;stroke-linecap:round;stroke-dasharray:none"
       d="M 113.04951,151.35832 H 252.25572"
       id="path1" /><path
       style="fill:none;stroke:#000000;stroke-width:5.29167;stroke-linecap:round;stroke-dasharray:none"
       d="M 113.04952,180.91896 H 252.25574"
       id="path2" /><path
       style="fill:none;stroke:#000000;stroke-width:5.29167;stroke-linecap:round;stroke-dasharray:none"
       d="M 113.04952,210.19863 H 252.25574"
       id="path3" /><path
       style="fill:none;stroke:#000000;stroke-width:5.29167;stroke-linecap:round;stroke-dasharray:none"
       d="m 182.65261,151.35832 v 89.33445"
       id="path4" /><path
       id="path5"
       style="fill:none;stroke:#000000;stroke-width:7.9375;stroke-dasharray:none;stroke-opacity:1"
       d="m 113.02045,150.13679 c -6.13259,0.75161 -12.61295,1.15432 -19.31453,1.15432 -38.439728,0 -69.601283,-13.24945 -69.601279,-29.59348 -0.0036,16.31762 31.161554,29.59348 69.601279,29.59348 6.7042,0 13.17972,-0.42327 19.31453,-1.15432 H 113.02 Z"
       sodipodi:nodetypes="ssccccs" /><path
       id="path6"
       style="fill:none;stroke:#000000;stroke-width:7.9375;stroke-dasharray:none;stroke-opacity:1"
       d="m 113.02045,194.98262 c -6.13259,0.75161 -12.61295,1.15432 -19.31453,1.15432 -38.439728,0 -69.601283,-13.24945 -69.601279,-29.59348 -0.0036,16.31762 31.161554,29.59348 69.601279,29.59348 6.7042,0 13.17972,-0.42327 19.31453,-1.15432 H 113.02 Z"
       sodipodi:nodetypes="ssccccs" /><path
       style="fill:none;stroke:#000000;stroke-width:7.9375;stroke-linecap:round;stroke-dasharray:none;stroke-opacity:1"
       d="m 163.30753,121.4865 h -50.25818 v 119.20625 l 12.22588,-9e-5"
       id="path8" /></g></svg>
